<?xml version="1.0" encoding="UTF-8"?>
<svg width="32" height="32" version="1.1" viewBox="0 0 32 32" xmlns="http://www.w3.org/2000/svg">
	<defs>
		<linearGradient id="LG" x1="13.75" x2="18.2" y1="7.35" y2="25.75" gradientUnits="userSpaceOnUse">
			<stop offset="0" stop-color="#fdbe11"/>
			<stop offset=".5" stop-color="#e35730"/>
			<stop offset="1" stop-color="#8149ca"/>
		</linearGradient>
	</defs>
	<circle cx="16" cy="16" r="16" fill="#1f1c21"/>
	<path d="m22.31 12.66c2.0035-1.5288 2.1776-2.0069 1.4079-5.2246m-4.2343 2.3867c1.566-1.3512 1.318-2.1812-1.0357-2.8572m-0.82195 15.069c-0.092588 1.5846-0.79915 1.3973-1.6304 3.0199m-5.8603-10.377c-1.9893-0.8723-2.1508 0.68491-2.618 1.8633m15.449 0.060356c1.7267-0.97473 1.0594 0.93511 1.2858 2.9073m-13.439-0.87006c-2.0398 1.603-3.1335 2.7723-3.1702 5.9748m7.8804-15.403c-0.30119-1.0773-1.0517-1.4661-2.296-1.4005m0.44878 13.639c-1.1806 1.4608-0.94387 2.2744-2.5942 3.0798m0.86156-13.512c-2.0551-1.6714-4.2578-0.33533-4.1211-3.3807m13.349 12.551c1.2275 2.0622-0.054778 3.9976 2.5855 4.6203" stroke="#000" stroke-linecap="round" stroke-linejoin="round" stroke-width="6"/>
	<circle cx="16.542" cy="15.624" r="2.5" stroke="#000" stroke-width="6"/>
	<path d="m22.31 12.66c2.0035-1.5288 2.1776-2.0069 1.4079-5.2246m-4.2343 2.3867c1.566-1.3512 1.318-2.1812-1.0357-2.8572m-0.82195 15.069c-0.092588 1.5846-0.79915 1.3973-1.6304 3.0199m-5.8603-10.377c-1.9893-0.8723-2.1508 0.68491-2.618 1.8633m15.449 0.060356c1.7267-0.97473 1.0594 0.93511 1.2858 2.9073m-13.439-0.87006c-2.0398 1.603-3.1335 2.7723-3.1702 5.9748m7.8804-15.403c-0.30119-1.0773-1.0517-1.4661-2.296-1.4005m0.44878 13.639c-1.1806 1.4608-0.94387 2.2744-2.5942 3.0798m0.86156-13.512c-2.0551-1.6714-4.2578-0.33533-4.1211-3.3807m13.349 12.551c1.2275 2.0622-0.054778 3.9976 2.5855 4.6203" stroke="url(#LG)" stroke-linecap="round" stroke-linejoin="round" stroke-width="2"/>
	<circle cx="16.542" cy="15.624" r="2.5" stroke="url(#LG)" stroke-width="2"/>
</svg>
