<?xml version="1.0" encoding="UTF-8"?>
<svg width="64" height="64" version="1.1" viewBox="0 0 64 64" xmlns="http://www.w3.org/2000/svg">
	<defs>
		<linearGradient id="LG" x1="29" x2="37" y1="14" y2="50" gradientUnits="userSpaceOnUse">
			<stop offset="0" stop-color="#fdbe11"/>
			<stop offset=".5" stop-color="#e35730"/>
			<stop offset="1" stop-color="#8149ca"/>
		</linearGradient>
	</defs>
	<circle cx="32" cy="32" r="32" fill="#1f1c21"/>
	<path d="m44.62 22.89c4.4107-3.5996 6.0897-0.4368 5.7823-8.7996m-8.418 5.8015c2.2752-3.2933 6.4034-2.833 0.58461-5.8262m-4.1883 4.2925c0.63473-1.9645-0.64595-3.8438-2.5526-4.4492m3.2227 22c0.4004 3.3169-1.3589 7.0726-5.8855 8.9984m-4.6904-21.292c-3.6132-0.45899-4.6929 1.625-8.8934 5.8252m23.014 4.6053c1.0885 2.0573 1.1288 10.813-1.7889 15.766m-13.082-22.26c-2.3773 0.22355-4.757 6.5917-11.576 8.1467m29.581-8.8476c3.3569-2.1424 4.744-0.40489 4.6166 4.9735m-21.588-0.41409c-7.5447 8.8737-12.237 8.6954-15.203 15.61m20.841-28.5c-1.3738-2.8994-7.1702-3.4678-10.161-2.6663-3.9012 1.0453-7.7833 2.4322-9.8307-1.7639m16.973 20.353c-8.3308 9.0306-7.5492 12.11-14.135 14.239m13.618-28.29c-4.8024-2.8557-12.88 1.7298-16.366 6.5148m20.55 9.1437c0.49768 6.5677-6.9507 3.2394-5.6514 10.319m15.587-15.547c4.8395 3.9217-0.59714 15.931 5.425 19.268" stroke="#000" stroke-linecap="round" stroke-linejoin="round" stroke-width="6"/>
	<circle cx="36.729" cy="27.217" r="5" fill="none" stroke="#000" stroke-width="6"/>
	<path d="m44.62 22.89c4.4107-3.5996 6.0897-0.4368 5.7823-8.7996m-8.418 5.8015c2.2752-3.2933 6.4034-2.833 0.58461-5.8262m-4.1883 4.2925c0.63473-1.9645-0.64595-3.8438-2.5526-4.4492m3.2227 22c0.4004 3.3169-1.3589 7.0726-5.8855 8.9984m-4.6904-21.292c-3.6132-0.45899-4.6929 1.625-8.8934 5.8252m23.014 4.6053c1.0885 2.0573 1.1288 10.813-1.7889 15.766m-13.082-22.26c-2.3773 0.22355-4.757 6.5917-11.576 8.1467m29.581-8.8476c3.3569-2.1424 4.744-0.40489 4.6166 4.9735m-21.588-0.41409c-7.5447 8.8737-12.237 8.6954-15.203 15.61m20.841-28.5c-1.3738-2.8994-7.1702-3.4678-10.161-2.6663-3.9012 1.0453-7.7833 2.4322-9.8307-1.7639m16.973 20.353c-8.3308 9.0306-7.5492 12.11-14.135 14.239m13.618-28.29c-4.8024-2.8557-12.88 1.7298-16.366 6.5148m20.55 9.1437c0.49768 6.5677-6.9507 3.2394-5.6514 10.319m15.587-15.547c4.8395 3.9217-0.59714 15.931 5.425 19.268" stroke="url(#LG)" stroke-linecap="round" stroke-linejoin="round" stroke-width="2"/>
	<circle cx="36.729" cy="27.217" r="5" fill="none" stroke="url(#LG)" stroke-width="2"/>
</svg>
